<?xml version="1.0" standalone="no"?>
<!DOCTYPE svg PUBLIC "-//W3C//DTD SVG 20010904//EN"
 "http://www.w3.org/TR/2001/REC-SVG-20010904/DTD/svg10.dtd">
<svg version="1.0" xmlns="http://www.w3.org/2000/svg"
 width="512.000000pt" height="512.000000pt" viewBox="0 0 512.000000 512.000000"
 preserveAspectRatio="xMidYMid meet">
<metadata>
Created by potrace 1.14, written by Peter Selinger 2001-2017
</metadata>
<g transform="translate(0.000000,512.000000) scale(0.100000,-0.100000)"
fill="#000000" stroke="none">
<path d="M2370 4789 c-114 -13 -261 -46 -369 -84 -161 -56 -1469 -651 -1527
-695 -204 -153 -202 -478 3 -635 24 -18 150 -81 280 -140 131 -59 239 -108
240 -109 2 -1 -106 -51 -239 -111 -139 -63 -261 -125 -288 -146 -88 -69 -150
-200 -150 -314 0 -114 62 -245 150 -314 27 -21 149 -83 288 -146 133 -59 241
-109 239 -110 -1 -2 -109 -51 -240 -110 -130 -59 -256 -122 -280 -140 -205
-157 -207 -482 -3 -635 58 -44 1363 -638 1525 -694 363 -126 769 -126 1132 0
162 56 1467 650 1525 694 204 153 202 478 -3 635 -24 18 -150 81 -280 140
-131 59 -239 108 -240 110 -2 1 106 51 239 110 139 63 261 125 288 146 88 69
150 200 150 314 0 114 -62 245 -150 314 -27 21 -149 83 -288 146 -133 60 -241
110 -239 111 1 1 109 50 240 109 130 59 256 122 280 140 205 157 207 482 3
635 -57 43 -1366 639 -1527 695 -233 81 -512 112 -759 84z m434 -424 c47 -8
130 -30 184 -48 124 -43 1395 -618 1385 -627 -4 -4 -280 -130 -613 -280 -333
-150 -611 -275 -618 -279 -7 -4 82 -50 215 -110 126 -57 407 -184 627 -284
l399 -180 -44 -22 c-24 -12 -306 -140 -627 -285 -320 -145 -581 -264 -580
-265 2 -2 280 -128 618 -280 338 -153 619 -281 623 -285 10 -9 -1260 -584
-1386 -627 -141 -48 -258 -66 -422 -66 -164 0 -281 18 -422 66 -109 38 -1396
617 -1388 625 3 3 172 81 376 173 l370 168 167 -76 c388 -174 542 -218 822
-230 308 -13 568 44 899 198 l94 44 -252 114 -252 114 -92 -21 c-263 -60 -515
-50 -752 31 -58 20 -1281 568 -1361 610 -28 15 -77 -9 634 312 l94 43 211 -95
c240 -108 366 -152 529 -185 96 -19 144 -23 323 -23 236 0 347 17 539 79 90
30 349 139 368 156 5 3 -106 57 -245 119 l-252 114 -90 -22 c-253 -60 -504
-51 -738 28 -76 26 -1370 604 -1390 621 -6 5 1087 506 1314 602 84 35 241 75
344 87 100 12 275 6 389 -14z"/>
</g>
</svg>
